<?xml version="1.0" encoding="UTF-8"?>
<svg version="1.1" xmlns="http://www.w3.org/2000/svg" width="617" height="690">
<path d="M0 0 C5.48328208 1.85287761 10.82384783 4.04691277 16.17236328 6.25292969 C18.14778427 7.03751473 20.1246213 7.81854286 22.1027832 8.59619141 C26.09604362 10.16985595 30.08243977 11.75918918 34.06396484 13.36230469 C41.43725894 16.32195247 48.86774596 19.12381983 56.30715942 21.91204834 C59.30953155 23.03901663 62.30837404 24.1752205 65.30732727 25.31124878 C76.61935682 29.59534109 87.94731841 33.83691564 99.27505493 38.07925415 C111.10390193 42.50964743 122.92365109 46.96324609 134.73486328 51.44042969 C149.05600677 56.86893193 163.39264617 62.25536623 177.73486328 67.62792969 C196.56908205 74.68373819 215.38828846 81.77799739 234.19482422 88.90722656 C241.51094989 91.68045118 248.82851456 94.44987486 256.14614868 97.21911621 C258.45014914 98.09113601 260.75401563 98.96350893 263.05786133 99.8359375 C264.49836737 100.38119817 265.93887821 100.92644618 267.37939453 101.47167969 C268.61020752 101.93767578 269.84102051 102.40367188 271.10913086 102.88378906 C277.98076925 105.47475252 284.85857848 108.04932289 291.73486328 110.62792969 C291.73486328 154.84792969 291.73486328 199.06792969 291.73486328 244.62792969 C278.35395732 249.86393637 264.98822682 255.08881206 251.52709961 260.10742188 C245.32533627 262.42149046 239.12559977 264.74094523 232.92626953 267.06152344 C231.88401718 267.4515152 230.84176483 267.84150696 229.76792908 268.24331665 C220.35319197 271.76742501 210.94803855 275.31650454 201.54736328 278.87792969 C200.80400726 279.15946899 200.06065125 279.4410083 199.29476929 279.7310791 C194.84925853 281.41486484 190.40410664 283.09959597 185.95910645 284.784729 C179.11404278 287.37966217 172.2685006 289.9733304 165.42236328 292.56542969 C164.28343124 292.99668152 164.28343124 292.99668152 163.12149048 293.43664551 C150.16046144 298.34307424 137.18605895 303.21336986 124.20794678 308.07440186 C112.14661272 312.59255385 100.09259228 317.12951236 88.04736328 321.69042969 C87.28855865 321.97773956 86.52975403 322.26504944 85.74795532 322.56106567 C80.4099268 324.58247989 75.07234147 326.60506287 69.73486328 328.62792969 C63.63100659 330.94124859 57.52691603 333.25394814 51.42236328 335.56542969 C50.67443512 335.84867096 49.92650696 336.13191223 49.15591431 336.42373657 C34.62159016 341.92660238 20.070911 347.38561333 5.51489258 352.83081055 C4.6965947 353.13713913 3.87829681 353.44346771 3.03520203 353.75907898 C1.50878353 354.33045952 -0.01780573 354.90138417 -1.54460144 355.47175598 C-5.71475176 357.02903496 -5.71475176 357.02903496 -9.76123047 358.87695312 C-17.49965427 361.19787664 -25.80167877 356.82308335 -32.93310547 354.10449219 C-34.16257401 353.64368256 -35.39204254 353.18287292 -36.6587677 352.70809937 C-39.93355103 351.48050307 -43.20427204 350.2424229 -46.47424316 349.0020752 C-49.69183877 347.78368905 -52.91322002 346.57540835 -56.13427734 345.36621094 C-63.84976831 342.46717024 -71.55806276 339.54925949 -79.26513672 336.62792969 C-80.49089417 336.16350464 -81.71665161 335.69907959 -82.97955322 335.22058105 C-91.40928301 332.02619562 -99.83741693 328.82761364 -108.26513672 325.62792969 C-127.21675241 318.43301091 -146.1753071 311.25684836 -165.1439209 304.1068573 C-167.11885232 303.36239318 -169.0937336 302.61779621 -171.06860352 301.87316895 C-187.46156307 295.69236947 -203.85868266 289.52283672 -220.26513672 283.37792969 C-231.92317866 279.01149844 -243.57391358 274.62712043 -255.2097168 270.20166016 C-263.72272495 266.96591972 -272.24288171 263.74939591 -280.76513672 260.53808594 C-281.9662056 260.08538834 -283.16727448 259.63269073 -284.40473938 259.16627502 C-289.31068141 257.31720781 -294.21663188 255.46816683 -299.12338257 253.62124634 C-302.58113964 252.31971208 -306.03841192 251.01689741 -309.49560547 249.71386719 C-310.55251587 249.31647842 -311.60942627 248.91908966 -312.69836426 248.50965881 C-313.66681274 248.14440598 -314.63526123 247.77915314 -315.63305664 247.40283203 C-316.90749886 246.92298355 -316.90749886 246.92298355 -318.20768738 246.43344116 C-320.26513672 245.62792969 -320.26513672 245.62792969 -322.26513672 244.62792969 C-322.26513672 200.73792969 -322.26513672 156.84792969 -322.26513672 111.62792969 C-317.34247122 109.16659694 -313.01986885 107.04101712 -307.94091797 105.21777344 C-306.76456787 104.79181885 -305.58821777 104.36586426 -304.3762207 103.92700195 C-303.45110184 103.59552658 -303.45110184 103.59552658 -302.5072937 103.25735474 C-299.12824728 102.04571615 -295.75569269 100.81620602 -292.38232422 99.58886719 C-291.3466053 99.21263969 -291.3466053 99.21263969 -290.28996277 98.82881165 C-283.90577268 96.50617926 -277.55058956 94.11030783 -271.20263672 91.69042969 C-268.77430751 90.76580249 -266.34593667 89.84128569 -263.91748047 88.91699219 C-263.26022476 88.66677307 -262.60296906 88.41655396 -261.92579651 88.15875244 C-251.71349005 84.27341794 -241.48831954 80.42202826 -231.26513672 76.56542969 C-230.15999725 76.14845825 -229.05485779 75.73148682 -227.91622925 75.30187988 C-206.95229415 67.39229232 -185.98457821 59.4927431 -165.01678467 51.59339142 C-145.0538556 44.07260787 -125.09281411 36.54691809 -105.13891602 29.00219727 C-94.81981064 25.10102698 -84.49778912 21.20766832 -74.17355728 17.32008934 C-72.04371263 16.51805438 -69.91392089 15.7158791 -67.78414917 14.91365051 C-67.08252592 14.64936973 -66.38090267 14.38508894 -65.65801811 14.11279964 C-64.24142697 13.57920839 -62.82483787 13.04561172 -61.40825081 12.51200962 C-57.22378546 10.93590945 -53.03895196 9.36079156 -48.85385609 7.78636646 C-46.88327151 7.04484816 -44.91287078 6.30284385 -42.94255066 5.56062317 C-40.50985417 4.64424254 -38.0768526 3.72867128 -35.64350891 2.81401062 C-34.02692635 2.20466423 -34.02692635 2.20466423 -32.37768555 1.58300781 C-31.43419754 1.22791138 -30.49070953 0.87281494 -29.51863098 0.50695801 C-20.39650439 -3.05134154 -9.43788937 -2.79393578 0 0 Z M-23.09716797 131.08496094 C-24.13893692 131.47253319 -24.13893692 131.47253319 -25.20175171 131.86793518 C-27.49494811 132.72216345 -29.78630741 133.58120706 -32.07763672 134.44042969 C-33.68278852 135.03974582 -35.28801394 135.63886482 -36.89331055 136.23779297 C-47.57641872 140.2278671 -58.24410353 144.25820681 -68.90161133 148.31616211 C-77.71480367 151.66969478 -86.54290462 154.98188375 -95.37548828 158.28393555 C-114.81380778 165.54685135 -114.81380778 165.54685135 -134.20263672 172.94042969 C-135.1370459 173.29508301 -136.07145508 173.64973633 -137.03417969 174.01513672 C-138.27578857 174.49829346 -138.27578857 174.49829346 -139.54248047 174.99121094 C-140.24622803 175.26231689 -140.94997559 175.53342285 -141.67504883 175.81274414 C-143.4635873 176.53157758 -143.4635873 176.53157758 -144.26513672 178.62792969 C-121.24377889 187.5421249 -98.17739829 196.32809929 -75.05053711 204.96508789 C-65.43290809 208.55809002 -55.82298451 212.167897 -46.23779297 215.84667969 C-44.51988161 216.5042153 -42.80194606 217.16168768 -41.08398438 217.8190918 C-37.91785332 219.03093906 -34.75539391 220.25176877 -31.59472656 221.4777832 C-30.18161834 222.01908433 -28.76837765 222.56003978 -27.35498047 223.10058594 C-26.14704834 223.56730713 -24.93911621 224.03402832 -23.69458008 224.51489258 C-17.46733725 226.5359647 -13.19991606 227.06245398 -7.03857422 224.70605469 C-5.8579541 224.26358398 -4.67733398 223.82111328 -3.4609375 223.36523438 C-2.18723344 222.86973288 -0.91363621 222.37395672 0.35986328 221.87792969 C1.70453145 221.36769759 3.04975795 220.85893475 4.39550781 220.3515625 C7.85436455 219.04367029 11.30614997 217.71808844 14.7565918 216.38818359 C17.75017861 215.23774186 20.75026387 214.10467944 23.75048828 212.97167969 C28.43173124 211.20305416 33.10961318 209.42591108 37.78564453 207.64355469 C43.67068848 205.40277192 49.56598218 203.19012707 55.46533203 200.98730469 C74.95939305 193.70651786 94.40474915 186.33510562 113.73486328 178.62792969 C110.61623067 175.20284788 106.98275494 173.98609187 102.71142578 172.44042969 C101.90784637 172.14208221 101.10426697 171.84373474 100.27633667 171.53634644 C97.64021553 170.55937949 95.0000665 169.59380423 92.35986328 168.62792969 C90.50991501 167.94411274 88.66030834 167.25937098 86.81103516 166.57373047 C83.12170204 165.20631882 79.43118454 163.84218592 75.73974609 162.48046875 C69.5555921 160.19575696 63.39377672 157.85482638 57.23486328 155.50292969 C44.13409864 150.52271181 31.02039019 145.57659581 17.90197182 140.64308929 C14.65374866 139.42148757 11.40594684 138.19879452 8.15917969 136.97332764 C4.49438794 135.59017554 0.82760879 134.21234369 -2.83935547 132.83496094 C-3.96190231 132.41053207 -5.08444916 131.98610321 -6.24101257 131.54881287 C-7.26950821 131.16346878 -8.29800385 130.77812469 -9.35766602 130.38110352 C-10.26058884 130.04121902 -11.16351166 129.70133453 -12.09379578 129.35115051 C-16.20447114 127.98198459 -19.22037624 129.62684377 -23.09716797 131.08496094 Z " fill="#A3110C" transform="translate(324.26513671875,1.3720703125)"/>
<path d="M0 0 C3.84545995 1.37056034 7.69067238 2.74181275 11.53566837 4.11367416 C12.84050994 4.5791249 14.14541602 5.04439482 15.45039082 5.50947189 C24.3148651 8.66883551 33.15385502 11.87183711 41.9375 15.25 C43.75121202 15.94228961 45.56492935 16.63456543 47.3788147 17.32640076 C49.28131479 18.05229639 51.18338496 18.77931088 53.08544922 19.50634766 C59.29876549 21.87924403 65.52023898 24.2306289 71.74124146 26.58328247 C74.03062788 27.44908286 76.31988578 28.31522243 78.60913086 29.18139648 C94.70372643 35.27005482 110.80414244 41.34329645 126.90429688 47.41723633 C139.8926293 52.31730777 152.87960442 57.22094249 165.86489868 62.12905884 C193.53372731 72.58654112 221.21216494 83.01855075 248.89422607 93.44094849 C256.28107727 96.22221275 263.66713372 99.00555909 271.05186462 101.79244995 C274.81717352 103.21291488 278.58329379 104.63121705 282.34970093 106.04876709 C284.00861641 106.67364951 285.66717703 107.29947494 287.3253479 107.92633057 C289.54667534 108.76594246 291.7692486 109.60216582 293.9921875 110.4375 C295.19214355 110.88996094 296.39209961 111.34242188 297.62841797 111.80859375 C298.74104004 112.20175781 299.85366211 112.59492187 301 113 C302.11246094 113.44303467 303.22492188 113.88606934 304.37109375 114.3425293 C309.33591364 115.24203548 312.47303421 113.92338787 317.0703125 112.08203125 C317.93509216 111.75432236 318.79987183 111.42661346 319.69085693 111.088974 C322.50986951 110.01564948 325.31701224 108.9143077 328.125 107.8125 C330.09578264 107.05635165 332.06730748 106.30213501 334.03955078 105.54980469 C337.94785736 104.05565455 341.85185111 102.55108061 345.75195312 101.03564453 C351.05207519 98.97652181 356.36648851 96.95847477 361.68701172 94.95263672 C365.02046274 93.69512563 368.35025589 92.42826916 371.6796875 91.16015625 C383.11008468 86.81032063 394.55673012 82.50331987 406 78.1875 C420.70245186 72.64211355 435.40358391 67.0933687 450.09790039 61.52645874 C463.87251593 56.30820888 477.6590759 51.12266182 491.45318604 45.95617676 C506.5394922 40.30499212 521.61531516 34.62623388 536.6875 28.9375 C537.81403992 28.51233093 538.94057983 28.08716187 540.10125732 27.64910889 C551.47455841 23.35626631 562.84654002 19.05996679 574.21484375 14.75390625 C575.07283066 14.4289769 575.93081757 14.10404755 576.81480408 13.76927185 C580.73461508 12.28468588 584.65412701 10.79932134 588.57299805 9.31225586 C592.37962574 7.86848456 596.18934329 6.43310372 600 5 C601.0940918 4.58492188 602.18818359 4.16984375 603.31542969 3.7421875 C604.7951123 3.18917969 604.7951123 3.18917969 606.3046875 2.625 C607.14757324 2.30789063 607.99045898 1.99078125 608.85888672 1.6640625 C611 1 611 1 614 1 C614 44.89 614 88.78 614 134 C600.8 138.95 587.6 143.9 574 149 C564.24772074 152.67916601 564.24772074 152.67916601 554.49853516 156.36645508 C538.01086962 162.60934192 521.50971402 168.81568223 505 175 C477.03738986 185.475239 449.10115621 196.02000464 421.1875 206.625 C409.30187159 211.14018689 397.39770416 215.60506196 385.4911499 220.06469727 C371.25687005 225.39682716 357.03200517 230.75359685 342.8125 236.125 C341.85996338 236.48466858 340.90742676 236.84433716 339.92602539 237.21490479 C338.07424731 237.91420037 336.22266892 238.61402502 334.37130737 239.31442261 C332.61860765 239.97614942 330.86482801 240.63502414 329.1098938 241.290802 C325.41461334 242.6764701 321.74803344 244.08340875 318.13427734 245.67089844 C316.46486084 246.38681152 316.46486084 246.38681152 314.76171875 247.1171875 C313.84737061 247.53339355 312.93302246 247.94959961 311.9909668 248.37841797 C304.22596974 249.99213787 295.96393238 245.66544152 288.828125 242.921875 C287.76599792 242.51919907 286.70387085 242.11652313 285.60955811 241.7016449 C282.1541701 240.39014112 278.70211716 239.07008632 275.25 237.75 C272.82835478 236.82922942 270.40647746 235.90906906 267.984375 234.98950195 C263.16874211 233.16030853 258.35430185 231.32803516 253.54101562 229.49267578 C246.0609254 226.64082085 238.57448799 223.80594477 231.08605957 220.97607422 C228.95263451 220.16959485 226.81953585 219.36225759 224.68652344 218.5546875 C201.59746237 209.81393225 178.49237677 201.11552256 155.39051723 192.40866375 C150.3089074 190.49341823 145.22742388 188.57783784 140.14599609 186.66210938 C131.15998148 183.27433961 122.17383345 179.88692396 113.1875 176.5 C112.45229126 176.22290066 111.71708252 175.94580132 110.95959473 175.66030502 C93.14524818 168.94628502 75.32805859 162.24004693 57.5 155.5625 C46.20155608 151.33032299 34.90761386 147.08672264 23.625 142.8125 C21.90313477 142.16099976 21.90313477 142.16099976 20.14648438 141.49633789 C1.37010708 134.37010708 1.37010708 134.37010708 0 133 C-0.09624593 131.27907347 -0.12187598 129.55416618 -0.12025452 127.83055115 C-0.12162918 126.71009399 -0.12300385 125.58963684 -0.12442017 124.43522644 C-0.12082489 123.19517349 -0.11722961 121.95512054 -0.11352539 120.67749023 C-0.11367142 119.38011932 -0.11381744 118.08274841 -0.1139679 116.74606323 C-0.11425586 113.17804071 -0.10835932 109.61005152 -0.10139394 106.04203677 C-0.09516021 102.3170938 -0.09455659 98.59215014 -0.09336853 94.86720276 C-0.09025527 87.80882637 -0.08204195 80.7504654 -0.07201904 73.69209582 C-0.06085774 65.65837029 -0.05534741 57.62464404 -0.05032361 49.5909127 C-0.03985934 33.06059943 -0.02226 16.53030168 0 0 Z " fill="#02488B" transform="translate(2,441)"/>
<path d="M0 0 C0 43.89 0 87.78 0 133 C-13.76743369 138.7364307 -13.76743369 138.7364307 -20.33984375 141.171875 C-21.08766617 141.45125916 -21.83548859 141.73064331 -22.60597229 142.01849365 C-24.21172892 142.61818786 -25.81785192 143.21690185 -27.42431641 143.81469727 C-31.84586501 145.46021433 -36.26451812 147.11348084 -40.68359375 148.765625 C-41.60800262 149.11101318 -42.5324115 149.45640137 -43.48483276 149.81225586 C-53.83352778 153.68091019 -64.16675224 157.59031825 -74.5 161.5 C-88.71995917 166.87897454 -102.94849617 172.23415645 -117.1875 177.5625 C-130.81009385 182.66050935 -144.41145033 187.81195504 -158 193 C-176.64594593 200.1184652 -195.32535914 207.14470736 -214.01904297 214.13671875 C-222.40982001 217.27519862 -230.79890946 220.41818131 -239.1875 223.5625 C-240.00688049 223.86958893 -240.82626099 224.17667786 -241.67047119 224.49307251 C-255.84969821 229.80813714 -270.01623078 235.15641221 -284.17651367 240.52172852 C-284.91314743 240.80083572 -285.64978119 241.07994293 -286.40873718 241.36750793 C-287.76371033 241.88100108 -289.11862554 242.39464716 -290.47346497 242.90849304 C-292.31525558 243.6066857 -294.15762566 244.30334914 -296 245 C-296.70453812 245.27967117 -297.40907623 245.55934235 -298.13496399 245.8474884 C-305.61213326 248.77426837 -310.08230713 247.15759394 -317.3125 244.3125 C-322.98897471 242.12599137 -328.68704443 240.04585162 -334.4375 238.0625 C-340.08727437 236.10129919 -345.61815427 233.95607857 -351.125 231.625 C-358.72662076 228.41269645 -366.46415776 225.71486237 -374.27319336 223.0534668 C-381.50414649 220.56982538 -388.58714697 217.81839005 -395.66259766 214.92553711 C-401.28254729 212.64379075 -406.94677359 210.58116728 -412.6875 208.625 C-421.61320104 205.58111394 -430.34953961 202.13158146 -439.07299805 198.55126953 C-444.95019189 196.15431518 -450.8489522 194.02479912 -456.88232422 192.05688477 C-462.03519715 190.31007295 -467.08571341 188.30591867 -472.14819336 186.31478882 C-484.04980171 181.6376662 -496.00248139 177.11213123 -508 172.6875 C-522.52652328 167.32925379 -536.98655389 161.8092515 -551.41796875 156.19995117 C-559.55447203 153.04485207 -567.71595168 150.01255739 -575.95690918 147.14105225 C-582.4199852 144.87846327 -588.77973951 142.38674809 -595.125 139.8125 C-596.71054687 139.17538086 -596.71054687 139.17538086 -598.328125 138.52539062 C-603.58135996 136.40895574 -608.7928932 134.2316172 -614 132 C-614 88.77 -614 45.54 -614 1 C-610.27392192 1.74521562 -607.45423497 2.49886396 -604.0078125 3.890625 C-602.59012573 4.45668457 -602.59012573 4.45668457 -601.14379883 5.03417969 C-600.14759521 5.43540039 -599.1513916 5.83662109 -598.125 6.25 C-590.36219504 9.33881383 -582.62522231 12.25455484 -574.64453125 14.734375 C-571.49059613 15.82963221 -568.46058816 17.04230697 -565.38671875 18.33984375 C-558.99500155 21.03542709 -552.5171473 23.4397453 -546 25.8125 C-537.80242765 28.81848228 -529.64822054 31.89226414 -521.5625 35.1875 C-514.41538891 38.09447071 -507.20879842 40.71710917 -499.91137695 43.2199707 C-491.83901479 46.00948351 -483.88299722 49.07988341 -475.91992188 52.1652832 C-468.58694168 55.00643714 -461.24081281 57.80757477 -453.875 60.5625 C-452.40643555 61.11224487 -452.40643555 61.11224487 -450.90820312 61.6730957 C-445.89641495 63.54756064 -440.88236598 65.41587736 -435.8671875 67.28125 C-426.51072936 70.76785117 -417.18570079 74.29721393 -407.9375 78.0625 C-399.90588705 81.32887212 -391.77293864 84.20093025 -383.56835938 87.00024414 C-376.44478327 89.44912293 -369.46086521 92.15313956 -362.48828125 95 C-355.47192895 97.85108919 -348.37502981 100.4371572 -341.24365234 102.98461914 C-333.94519985 105.6091826 -326.75217752 108.45641904 -319.60742188 111.47460938 C-318.45790039 111.94930664 -318.45790039 111.94930664 -317.28515625 112.43359375 C-316.62394775 112.71259521 -315.96273926 112.99159668 -315.28149414 113.27905273 C-309.42324508 115.1302469 -305.235784 115.16748137 -299.50610352 112.96484375 C-298.89554359 112.73519393 -298.28498367 112.50554411 -297.65592194 112.2689352 C-295.64085692 111.5067433 -293.63525798 110.72231062 -291.62890625 109.9375 C-290.20109762 109.39246545 -288.77273481 108.84888075 -287.34385681 108.30665588 C-283.53105158 106.8555059 -279.7258352 105.38536848 -275.92172241 103.91160965 C-271.98094713 102.38888388 -268.03325337 100.88433293 -264.0859375 99.37866211 C-258.61648763 97.29082093 -253.14894986 95.19813691 -247.68427849 93.09781933 C-237.43732772 89.1595258 -227.16754217 85.28489294 -216.88122559 81.45056152 C-213.01677204 80.00934045 -209.15480774 78.56149081 -205.29296875 77.11328125 C-204.58560577 76.84808685 -203.8782428 76.58289246 -203.14944458 76.30966187 C-191.41925374 71.90936257 -179.70992896 67.45387703 -168 63 C-151.84785171 56.85652274 -135.6830373 50.74906177 -119.5 44.6875 C-106.92959784 39.97903852 -94.365148 35.25559502 -81.8125 30.5 C-66.41043847 24.66681062 -51.00627742 18.83917739 -35.59811497 13.02212143 C-32.07489709 11.69196803 -28.55190317 10.36122861 -25.02944946 9.02905273 C-21.69348982 7.76743059 -18.35694372 6.50737231 -15.01994514 5.24850082 C-13.16916579 4.54983657 -11.31900619 3.84953126 -9.46885681 3.14920044 C-8.36570633 2.73338715 -7.26255585 2.31757385 -6.12597656 1.88916016 C-4.67121918 1.33961166 -4.67121918 1.33961166 -3.18707275 0.77896118 C-1 0 -1 0 0 0 Z " fill="#3C9646" transform="translate(616,277)"/>
<path d="M0 0 C5.48328208 1.85287761 10.82384783 4.04691277 16.17236328 6.25292969 C18.14778427 7.03751473 20.1246213 7.81854286 22.1027832 8.59619141 C26.09604362 10.16985595 30.08243977 11.75918918 34.06396484 13.36230469 C41.43725894 16.32195247 48.86774596 19.12381983 56.30715942 21.91204834 C59.30953155 23.03901663 62.30837404 24.1752205 65.30732727 25.31124878 C76.61935682 29.59534109 87.94731841 33.83691564 99.27505493 38.07925415 C111.10390193 42.50964743 122.92365109 46.96324609 134.73486328 51.44042969 C149.05600677 56.86893193 163.39264617 62.25536623 177.73486328 67.62792969 C195.82674487 74.40563857 213.90574714 81.21623878 231.97091675 88.06480408 C237.5747117 90.18905707 243.17993184 92.30952434 248.78564453 94.42871094 C250.4670425 95.0644492 252.148439 95.70019135 253.82983398 96.3359375 C256.24077363 97.24751651 258.6517425 98.15901763 261.06283569 99.07019043 C270.29814727 102.56052504 279.5249088 106.07108531 288.73486328 109.62792969 C287.73486328 112.62792969 287.73486328 112.62792969 286.23876953 113.72558594 C280.86566554 116.39592132 275.65227684 117.70636528 269.73486328 118.62792969 C269.73486328 119.28792969 269.73486328 119.94792969 269.73486328 120.62792969 C267.63234467 121.29977586 265.52778565 121.96523937 263.42236328 122.62792969 C262.25060547 122.99917969 261.07884766 123.37042969 259.87158203 123.75292969 C256.73486328 124.62792969 256.73486328 124.62792969 253.73486328 124.62792969 C253.73486328 125.28792969 253.73486328 125.94792969 253.73486328 126.62792969 C251.92501953 127.22541016 251.92501953 127.22541016 250.07861328 127.83496094 C248.46400282 128.37003533 246.84942101 128.90519621 245.23486328 129.44042969 C244.44337891 129.70146484 243.65189453 129.9625 242.83642578 130.23144531 C238.96423075 131.51688711 235.13085113 132.84646927 231.32861328 134.32714844 C227.73486328 135.62792969 227.73486328 135.62792969 224.73486328 135.62792969 C224.73486328 136.28792969 224.73486328 136.94792969 224.73486328 137.62792969 C223.86603516 137.881875 222.99720703 138.13582031 222.10205078 138.39746094 C220.94962891 138.74164063 219.79720703 139.08582031 218.60986328 139.44042969 C217.47291016 139.776875 216.33595703 140.11332031 215.16455078 140.45996094 C211.8303793 141.59540202 208.87120921 143.03845003 205.73486328 144.62792969 C204.1244692 145.17314148 202.49901781 145.67649041 200.85986328 146.12792969 C197.60234963 147.05654218 194.45073293 148.07847253 191.29736328 149.31542969 C187.73486328 150.62792969 187.73486328 150.62792969 184.73486328 150.62792969 C184.73486328 151.28792969 184.73486328 151.94792969 184.73486328 152.62792969 C183.88923828 152.87027344 183.04361328 153.11261719 182.17236328 153.36230469 C174.84238704 155.44651588 174.84238704 155.44651588 167.92236328 158.56542969 C164.2806742 160.52227092 160.49314839 161.70109964 156.54736328 162.87792969 C149.79313427 164.90103349 143.19782065 167.24115245 136.60986328 169.75292969 C135.72145752 170.08969727 134.83305176 170.42646484 133.91772461 170.7734375 C130.36235522 172.14158992 127.04205961 173.44906603 123.74267578 175.37011719 C116.45060661 178.41952793 109.0837773 176.56233705 102.02783203 173.73339844 C101.23415726 173.43080612 100.44048248 173.12821381 99.62275696 172.81645203 C97.04974828 171.8314483 94.48637402 170.82359538 91.92236328 169.81542969 C90.10528147 169.1153963 88.2875641 168.41701056 86.46923828 167.72021484 C82.8518287 166.33147747 79.23783382 164.93443378 75.62695312 163.52880859 C68.43593469 160.73047109 61.21960959 157.99968763 53.99609375 155.28637695 C46.50436894 152.46364092 39.04209732 149.57454487 31.5921936 146.64291382 C27.17363277 144.90721525 22.74614271 143.19478215 18.31647682 141.48764992 C15.12540362 140.2565322 11.93940097 139.01478716 8.76269531 137.74700928 C5.1658914 136.31752697 1.55627448 134.92632178 -2.05810547 133.54199219 C-3.13936203 133.10207947 -4.22061859 132.66216675 -5.3346405 132.20892334 C-12.71909894 129.43895106 -17.05924408 129.52496919 -24.26513672 132.62792969 C-25.56926326 133.0950503 -26.87531861 133.55683481 -28.18359375 134.01220703 C-29.46464912 134.49272086 -30.74439299 134.97674258 -32.02294922 135.46386719 C-32.74438614 135.73546158 -33.46582306 136.00705597 -34.2091217 136.28688049 C-36.60395622 137.18918054 -38.9970171 138.0960922 -41.39013672 139.00292969 C-43.11175892 139.6524678 -44.83352436 140.30162637 -46.55541992 140.95043945 C-49.35607389 142.00583703 -52.15660395 143.06155523 -54.9566803 144.1184845 C-62.83767531 147.09297642 -70.72434631 150.05216838 -78.61279297 153.00683594 C-79.84040344 153.46670898 -81.06801392 153.92658203 -82.33282471 154.40039062 C-87.23102642 156.23520072 -92.12928864 158.06984913 -97.02764893 159.90423584 C-99.34608967 160.77263691 -101.66437038 161.64146537 -103.98248291 162.51074219 C-106.2208609 163.34946356 -108.45990434 164.18641138 -110.699646 165.02148438 C-115.91963082 166.97239864 -121.12031211 168.95632819 -126.29101562 171.03466797 C-127.23705154 171.41023331 -128.18308746 171.78579865 -129.15779114 172.17274475 C-130.90136008 172.8675066 -132.64025838 173.57417818 -134.37284851 174.29588318 C-142.01341964 177.32268704 -148.71378378 177.60013722 -156.51513672 174.81542969 C-157.48966797 174.47898438 -158.46419922 174.14253906 -159.46826172 173.79589844 C-162.26513672 172.62792969 -162.26513672 172.62792969 -164.66748047 171.14746094 C-167.82901169 169.29808403 -171.10405843 168.21851732 -174.57763672 167.12792969 C-179.86298727 165.41869544 -185.08261953 163.62819948 -190.26513672 161.62792969 C-191.48201172 161.17417969 -192.69888672 160.72042969 -193.95263672 160.25292969 C-197.56504538 158.89916707 -201.16528801 157.51472262 -204.76513672 156.12792969 C-213.24421298 152.80990478 -213.24421298 152.80990478 -221.83154297 149.79199219 C-226.5192064 148.20277296 -231.13868983 146.44873761 -235.76513672 144.69042969 C-236.68939453 144.34302734 -237.61365234 143.995625 -238.56591797 143.63769531 C-242.1913769 142.26064331 -245.72147 140.90964124 -249.16748047 139.12402344 C-255.04193842 136.286801 -261.38146086 134.56703428 -267.58740234 132.58886719 C-268.62703125 132.25113281 -269.66666016 131.91339844 -270.73779297 131.56542969 C-271.67888916 131.26507813 -272.61998535 130.96472656 -273.58959961 130.65527344 C-276.37904071 129.58419321 -278.73084482 128.19953372 -281.26513672 126.62792969 C-282.89253585 126.07084853 -284.54008749 125.56917498 -286.20263672 125.12792969 C-289.10724336 124.30780546 -291.50114051 123.50741711 -294.20263672 122.12792969 C-297.98442544 120.27562501 -301.79215073 119.36115171 -305.87451172 118.37402344 C-308.26513672 117.62792969 -308.26513672 117.62792969 -310.26513672 115.62792969 C-311.7857029 115.02958415 -313.3312576 114.49286313 -314.89013672 114.00292969 C-315.70740234 113.74253906 -316.52466797 113.48214844 -317.36669922 113.21386719 C-318.30642578 112.92382812 -318.30642578 112.92382812 -319.26513672 112.62792969 C-319.26513672 111.63792969 -319.26513672 110.64792969 -319.26513672 109.62792969 C-317.98956909 109.15057373 -317.98956909 109.15057373 -316.68823242 108.66357422 C-291.93997412 99.39995165 -267.20959135 90.08914875 -242.48309708 80.76763535 C-224.58240924 74.0193814 -206.68067557 67.27418637 -188.76513672 60.56542969 C-170.59895114 53.76211061 -152.45286454 46.90600632 -134.30813599 40.04570007 C-123.58476589 35.99179165 -112.8586787 31.94508876 -102.13256836 27.8984375 C-98.78802149 26.63656395 -95.44355565 25.37447588 -92.09912109 24.11230469 C-82.14907367 20.35723346 -72.1988568 16.60261745 -62.24746704 12.85110474 C-58.02395383 11.2587035 -53.80076017 9.66545606 -49.57763672 8.07202148 C-47.58998937 7.32228634 -45.60219815 6.57293252 -43.61425781 5.82397461 C-40.88944387 4.79735748 -38.16512304 3.76944245 -35.44091797 2.74121094 C-34.63531937 2.43806473 -33.82972076 2.13491852 -32.99971008 1.82258606 C-22.18692641 -2.26301705 -11.35107819 -3.36030464 0 0 Z " fill="#750402" transform="translate(324.26513671875,1.3720703125)"/>
<path d="M0 0 C3.84545995 1.37056034 7.69067238 2.74181275 11.53566837 4.11367416 C12.84050994 4.5791249 14.14541602 5.04439482 15.45039082 5.50947189 C24.3148651 8.66883551 33.15385502 11.87183711 41.9375 15.25 C43.75121202 15.94228961 45.56492935 16.63456543 47.3788147 17.32640076 C49.28131479 18.05229639 51.18338496 18.77931088 53.08544922 19.50634766 C59.29876549 21.87924403 65.52023898 24.2306289 71.74124146 26.58328247 C74.03062788 27.44908286 76.31988578 28.31522243 78.60913086 29.18139648 C94.70372643 35.27005482 110.80414244 41.34329645 126.90429688 47.41723633 C139.8926293 52.31730777 152.87960442 57.22094249 165.86489868 62.12905884 C184.65962369 69.2325581 203.45911849 76.32338753 222.26046753 83.40933228 C225.28293336 84.54846004 228.30533073 85.68776915 231.32766724 86.82723999 C245.57923084 92.20018388 259.83111498 97.57189016 274.1015625 102.89453125 C275.05751816 103.25142029 276.01347382 103.60830933 276.99839783 103.97601318 C281.25039339 105.56325984 285.50343389 107.14753832 289.7590332 108.72509766 C291.20268489 109.26321714 292.64629178 109.80145683 294.08984375 110.33984375 C295.29503662 110.78706787 296.50022949 111.23429199 297.74194336 111.69506836 C300.90128649 112.96046282 303.95596687 114.47798343 307 116 C307 159.89 307 203.78 307 249 C293.9619846 244.43669461 280.98172608 239.81286121 268.0625 234.9375 C266.30759619 234.27718326 264.55263048 233.61703099 262.79760742 232.95703125 C250.30679091 228.25712796 237.82430861 223.53508382 225.34399414 218.80737305 C210.73479767 213.27374744 196.11788788 207.76061812 181.5 202.25 C180.86173531 202.00938843 180.22347061 201.76877686 179.56586456 201.52087402 C172.20499352 198.74603604 164.84398001 195.97157613 157.48291016 193.19726562 C151.70382344 191.01918615 145.9248615 188.84077596 140.14599609 186.66210938 C131.15998148 183.27433961 122.17383345 179.88692396 113.1875 176.5 C112.45229126 176.22290066 111.71708252 175.94580132 110.95959473 175.66030502 C93.14524818 168.94628502 75.32805859 162.24004693 57.5 155.5625 C46.20155608 151.33032299 34.90761386 147.08672264 23.625 142.8125 C21.90313477 142.16099976 21.90313477 142.16099976 20.14648438 141.49633789 C1.37010708 134.37010708 1.37010708 134.37010708 0 133 C-0.09624593 131.27907347 -0.12187598 129.55416618 -0.12025452 127.83055115 C-0.12162918 126.71009399 -0.12300385 125.58963684 -0.12442017 124.43522644 C-0.12082489 123.19517349 -0.11722961 121.95512054 -0.11352539 120.67749023 C-0.11367142 119.38011932 -0.11381744 118.08274841 -0.1139679 116.74606323 C-0.11425586 113.17804071 -0.10835932 109.61005152 -0.10139394 106.04203677 C-0.09516021 102.3170938 -0.09455659 98.59215014 -0.09336853 94.86720276 C-0.09025527 87.80882637 -0.08204195 80.7504654 -0.07201904 73.69209582 C-0.06085774 65.65837029 -0.05534741 57.62464404 -0.05032361 49.5909127 C-0.03985934 33.06059943 -0.02226 16.53030168 0 0 Z " fill="#0192C8" transform="translate(2,441)"/>
<path d="M0 0 C0.66 0 1.32 0 2 0 C2 0.66 2 1.32 2 2 C2.62648438 2.12117188 3.25296875 2.24234375 3.8984375 2.3671875 C5.12433594 2.61855469 5.12433594 2.61855469 6.375 2.875 C7.59316406 3.11863281 7.59316406 3.11863281 8.8359375 3.3671875 C11 4 11 4 13 6 C16.47892859 7.08909425 19.9919581 7.98420827 23.51953125 8.90234375 C26.77292588 9.92838628 29.13861666 11.19102375 32 13 C34.01674776 13.79542401 34.01674776 13.79542401 36.0625 14.375 C39.60824968 15.49501585 42.96891794 16.82144589 46.375 18.3125 C52.50118101 20.92675719 58.76745199 22.89042356 65.14990234 24.76879883 C69.70946515 26.1435342 73.81757408 27.80956834 78.03515625 30.01635742 C81.29818751 31.64990029 84.6998247 32.87768183 88.125 34.125 C89.14013672 34.50205078 89.14013672 34.50205078 90.17578125 34.88671875 C95.01025053 36.67276059 99.8812858 38.32046842 104.7890625 39.89453125 C113.20510982 42.61873389 121.30378205 45.90434667 129.37890625 49.5078125 C133.07188969 51.02962445 136.79671175 52.19982852 140.625 53.3125 C147.06902785 55.24698203 153.02553862 57.72481091 159.09765625 60.64453125 C164.25115696 63.05134787 169.34359333 64.87548704 175 65.5625 C175.99 65.706875 176.98 65.85125 178 66 C178.33 66.66 178.66 67.32 179 68 C181.15895468 68.96354165 183.28762011 69.81311812 185.50390625 70.625 C186.53680031 71.0130481 186.53680031 71.0130481 187.59056091 71.40893555 C189.91210786 72.27928546 192.23728448 73.13950379 194.5625 74 C196.21575021 74.61780651 197.86873919 75.23631248 199.52148438 75.85546875 C203.10425858 77.19641982 206.68853247 78.53325543 210.27392578 79.8671875 C216.13280122 82.04779608 221.98680677 84.24127554 227.83984375 86.4375 C228.83698898 86.81165039 229.83413422 87.18580078 230.86149597 87.57128906 C232.88969744 88.33233461 234.91789057 89.0934024 236.94607544 89.85449219 C240.00073226 91.00027467 243.05583771 92.14485282 246.11108398 93.2890625 C255.7698332 96.90696998 265.42536917 100.53292525 275.0703125 104.1875 C275.93340027 104.51451904 276.79648804 104.84153809 277.68572998 105.1784668 C281.71057124 106.70408376 285.73465206 108.23167511 289.7578125 109.76171875 C291.17447672 110.2994856 292.59114325 110.83724639 294.0078125 111.375 C295.22098145 111.83648437 296.43415039 112.29796875 297.68408203 112.7734375 C300.76626247 113.91354017 303.88235613 114.96078538 307 116 C306.67 159.89 306.34 203.78 306 249 C299.14467494 247.13036589 292.7033373 245.29455905 286.14453125 242.734375 C285.33664154 242.42426987 284.52875183 242.11416473 283.69638062 241.79466248 C281.96584593 241.12982854 280.23620885 240.4626541 278.50741577 239.79330444 C273.84496777 237.9882934 269.1757831 236.20082477 264.5078125 234.41015625 C263.55120224 234.0425972 262.59459198 233.67503815 261.60899353 233.29634094 C251.057669 229.24543214 240.47360608 225.28301896 229.88613892 221.32775879 C218.38677398 217.0314268 206.90406203 212.69250281 195.4276123 208.33531189 C182.33263552 203.36421586 169.22781166 198.41930143 156.12121582 193.47892761 C154.1462844 192.73446349 152.17140312 191.98986652 150.1965332 191.24523926 C133.80357365 185.06443978 117.40645406 178.89490704 101 172.75 C89.34195806 168.38356875 77.69122314 163.99919074 66.05541992 159.57373047 C57.54241177 156.33799004 49.02225501 153.12146622 40.5 149.91015625 C38.69839668 149.23110985 38.69839668 149.23110985 36.86039734 148.53834534 C31.95445531 146.68927812 27.04850484 144.84023714 22.14175415 142.99331665 C18.68399708 141.69178239 15.2267248 140.38896773 11.76953125 139.0859375 C10.71262085 138.68854874 9.65571045 138.29115997 8.56677246 137.88172913 C7.59832397 137.51647629 6.62987549 137.15122345 5.63208008 136.77490234 C4.35763786 136.29505386 4.35763786 136.29505386 3.05744934 135.80551147 C1 135 1 135 -1 134 C-1.0233285 116.67622648 -1.04097893 99.35245784 -1.05181217 82.02867222 C-1.05697523 73.98549946 -1.06401812 65.94233643 -1.07543945 57.89916992 C-1.08538598 50.8912704 -1.09185335 43.88337792 -1.09408849 36.87547153 C-1.09539566 33.16256808 -1.09848184 29.4496848 -1.10573006 25.7367878 C-1.11374332 21.59868589 -1.11399116 17.46061939 -1.11352539 13.32250977 C-1.11712067 12.08245682 -1.12071594 10.84240387 -1.12442017 9.56477356 C-1.1230455 8.44431641 -1.12167084 7.32385925 -1.12025452 6.16944885 C-1.12117631 5.18958291 -1.1220981 4.20971697 -1.12304783 3.20015812 C-1 1 -1 1 0 0 Z " fill="#EC261C" transform="translate(3,112)"/>
<path d="M0 0 C3.72607808 0.74521562 6.54576503 1.49886396 9.9921875 2.890625 C10.93731201 3.26799805 11.88243652 3.64537109 12.85620117 4.03417969 C13.85240479 4.43540039 14.8486084 4.83662109 15.875 5.25 C23.63780496 8.33881383 31.37477769 11.25455484 39.35546875 13.734375 C42.50940387 14.82963221 45.53941184 16.04230697 48.61328125 17.33984375 C55.00499845 20.03542709 61.4828527 22.4397453 68 24.8125 C76.19757235 27.81848228 84.35177946 30.89226414 92.4375 34.1875 C99.58461109 37.09447071 106.79120158 39.71710917 114.08862305 42.2199707 C122.16098521 45.00948351 130.11700278 48.07988341 138.08007812 51.1652832 C145.41305832 54.00643714 152.75918719 56.80757477 160.125 59.5625 C161.59356445 60.11224487 161.59356445 60.11224487 163.09179688 60.6730957 C168.10358505 62.54756064 173.11763402 64.41587736 178.1328125 66.28125 C187.48927064 69.76785117 196.81429921 73.29721393 206.0625 77.0625 C214.09411295 80.32887212 222.22706136 83.20093025 230.43164062 86.00024414 C237.55521673 88.44912293 244.53913479 91.15313956 251.51171875 94 C257.62384439 96.4836574 263.7893534 98.77511215 270 101 C278.23614751 103.95102457 286.37948642 107.08253856 294.48046875 110.38671875 C295.25003906 110.69996094 296.01960938 111.01320313 296.8125 111.3359375 C297.47894531 111.60970215 298.14539063 111.8834668 298.83203125 112.16552734 C301.5216072 113.20077178 304.26595631 114.0886521 307 115 C307 158.56 307 202.12 307 247 C286.33072064 239.70496022 286.33072064 239.70496022 280.5 237.5625 C279.71141602 237.2730249 278.92283203 236.9835498 278.11035156 236.68530273 C272.9347938 234.76649112 267.83446857 232.70947847 262.75 230.5625 C255.18990491 227.3747778 247.49003362 224.69937641 239.72631836 222.05322266 C232.49547691 219.56980675 225.41268382 216.81832087 218.33740234 213.92553711 C212.71745271 211.64379075 207.05322641 209.58116728 201.3125 207.625 C192.38679896 204.58111394 183.65046039 201.13158146 174.92700195 197.55126953 C169.04980811 195.15431518 163.1510478 193.02479912 157.11767578 191.05688477 C151.96480285 189.31007295 146.91428659 187.30591867 141.85180664 185.31478882 C129.95019829 180.6376662 117.99751861 176.11213123 106 171.6875 C91.47347672 166.32925379 77.01344611 160.8092515 62.58203125 155.19995117 C54.44552797 152.04485207 46.28404832 149.01255739 38.04309082 146.14105225 C31.5800148 143.87846327 25.22026049 141.38674809 18.875 138.8125 C17.28945313 138.17538086 17.28945313 138.17538086 15.671875 137.52539062 C10.41864004 135.40895574 5.2071068 133.2316172 0 131 C0 87.77 0 44.54 0 0 Z " fill="#84D790" transform="translate(2,278)"/>
</svg>
